<svg width="32" height="32" viewBox="0 0 32 32" fill="none" xmlns="http://www.w3.org/2000/svg">
<path d="M31.5606 23.3592C32.1465 24.0287 32.1465 25.1142 31.5606 25.7836L26.5606 31.4967C25.6225 32.5689 24 31.8174 24 30.2845V27.4286H20.3259C20.2231 27.4286 20.1213 27.4044 20.027 27.3576C19.9327 27.3107 19.8478 27.2422 19.7776 27.1563L15.3679 21.7566L18.7012 17.6749L22 21.7143H24V18.8585C24 17.3272 25.6214 16.5729 26.5606 17.6463L31.5606 23.3592ZM0.749999 10.2857H5.99999L9.2988 14.3251L12.6321 10.2434L8.22236 4.84371C8.15219 4.75778 8.0673 4.68927 7.97297 4.64243C7.87865 4.59559 7.7769 4.57142 7.67405 4.57143H0.749999C0.335812 4.57143 0 4.95521 0 5.42857V9.42857C0 9.90193 0.335812 10.2857 0.749999 10.2857ZM24 10.2857V13.1417C24 14.6746 25.6225 15.426 26.5606 14.3539L31.5606 8.64079C32.1465 7.97129 32.1465 6.88586 31.5606 6.21643L26.5606 0.503497C25.6214 -0.569933 24 0.184425 24 1.71564V4.57143H20.3259C20.2231 4.57144 20.1213 4.59562 20.027 4.64246C19.9327 4.6893 19.8478 4.7578 19.7776 4.84371L5.99999 21.7143H0.749999C0.335812 21.7143 0 22.0981 0 22.5714V26.5714C0 27.0448 0.335812 27.4286 0.749999 27.4286H7.67405C7.88193 27.4286 8.08049 27.3299 8.22236 27.1563L22 10.2857H24Z" fill="#F2F2F2"/>
</svg>
