<svg width="32" height="32" viewBox="0 0 32 32" fill="none" xmlns="http://www.w3.org/2000/svg">
<path d="M32 29.7852L21.5143 19.1543C22.9429 17.161 23.7929 14.7104 23.7929 12.067C23.7929 5.4155 18.4571 7.06093e-06 11.9 7.06093e-06C5.33571 -0.00713739 0 5.40836 0 12.0598C0 18.7113 5.33571 24.1268 11.8929 24.1268C14.7357 24.1268 17.3429 23.1123 19.3929 21.4191L29.8214 32L32 29.7852ZM11.8929 21.3405C6.85 21.3405 2.74286 17.1753 2.74286 12.0598C2.74286 6.94441 6.85 2.7792 11.8929 2.7792C16.9357 2.7792 21.0429 6.94441 21.0429 12.0598C21.0429 17.1753 16.9429 21.3405 11.8929 21.3405Z" fill="#F2F2F2"/>
</svg>
