<svg width="32" height="32" viewBox="0 0 32 32" fill="none" xmlns="http://www.w3.org/2000/svg">
<path d="M18 5.545V4H19C19.5525 4 20 3.40333 20 2.66667V1.33333C20 0.596667 19.5525 0 19 0H13C12.4475 0 12 0.596667 12 1.33333V2.66667C12 3.40333 12.4475 4 13 4H14V5.545C7.21812 6.8425 2 14.5983 2 24H30C30 14.5983 24.7819 6.8425 18 5.545ZM31 26.6667H1C0.4475 26.6667 0 27.2633 0 28V30.6667C0 31.4033 0.4475 32 1 32H31C31.5525 32 32 31.4033 32 30.6667V28C32 27.2633 31.5525 26.6667 31 26.6667Z" fill="#F1F1F1"/>
</svg>
