<svg width="32" height="32" viewBox="0 0 32 32" fill="none" xmlns="http://www.w3.org/2000/svg">
<path d="M25.1429 20C23.528 20 22.0438 20.4887 20.8721 21.3059L13.5517 17.3026C13.7685 16.4445 13.7685 15.5554 13.5517 14.6974L20.8721 10.694C22.0438 11.5113 23.528 12 25.1429 12C28.9299 12 32 9.31369 32 6C32 2.68631 28.9299 0 25.1429 0C21.3558 0 18.2857 2.68631 18.2857 6C18.2857 6.44737 18.3421 6.88313 18.4483 7.30256L11.1279 11.3059C9.95621 10.4887 8.472 10 6.85714 10C3.07007 10 0 12.6863 0 16C0 19.3137 3.07007 22 6.85714 22C8.472 22 9.95621 21.5113 11.1279 20.6941L18.4483 24.6974C18.3401 25.1252 18.2856 25.5619 18.2857 26C18.2857 29.3137 21.3558 32 25.1429 32C28.9299 32 32 29.3137 32 26C32 22.6863 28.9299 20 25.1429 20Z" fill="#F2F2F2"/>
</svg>
