<svg width="32" height="32" viewBox="0 0 32 32" fill="none" xmlns="http://www.w3.org/2000/svg">
<path d="M25.2903 3.43492C29.3548 6.29206 32 10.9651 32 16.254C32 24.9397 24.8516 31.9809 16.0323 32C7.22582 32.019 0.012915 24.9524 1.17752e-05 16.2793C-0.00643984 10.9905 2.63872 6.30475 6.69678 3.44127C7.45162 2.91428 8.50323 3.1365 8.95485 3.93015L9.9742 5.71428C10.3548 6.38095 10.1742 7.22539 9.5484 7.68253C6.87098 9.63808 5.1613 12.7365 5.1613 16.2476C5.15485 22.1079 9.96775 26.9206 16 26.9206C21.9097 26.9206 26.8774 22.2095 26.8387 16.1841C26.8194 12.8952 25.2452 9.72062 22.4452 7.67618C21.8194 7.21904 21.6452 6.3746 22.0258 5.71428L23.0452 3.93015C23.4968 3.14285 24.5419 2.90793 25.2903 3.43492ZM18.5807 16.7619V1.52381C18.5807 0.679364 17.8903 0 17.0323 0H14.9677C14.1097 0 13.4194 0.679364 13.4194 1.52381V16.7619C13.4194 17.6063 14.1097 18.2857 14.9677 18.2857H17.0323C17.8903 18.2857 18.5807 17.6063 18.5807 16.7619Z" fill="#F6F7F6"/>
</svg>
