<svg width="32" height="32" viewBox="0 0 32 32" fill="none" xmlns="http://www.w3.org/2000/svg">
<path d="M20.722 16.8154C20.4768 19.0856 18.438 20.7238 16.1669 20.4787C13.8958 20.2336 12.257 18.1956 12.5022 15.9253C12.7474 13.6551 14.7862 12.0169 17.0573 12.262C19.3219 12.5071 20.9671 14.5451 20.722 16.8154ZM15.1862 31.9782C5.72117 31.4816 -1.04694 23.065 0.133771 13.9582C0.85639 8.37292 4.37916 3.8389 9.10845 1.57511C19.4961 -3.39748 31.6709 3.98724 31.9935 15.5448C32.2581 25.0256 24.3544 32.4555 15.1862 31.9782ZM26.7933 20.3691C28.5934 12.7586 16.4379 7.08947 11.4892 5.26425C7.77934 8.89534 7.03092 17.4281 9.30846 27.4765C13.7474 28.4955 20.2187 25.7738 26.7933 20.3691Z" fill="#F2F2F2"/>
</svg>
