<svg width="32" height="32" viewBox="0 0 32 32" fill="none" xmlns="http://www.w3.org/2000/svg">
<path d="M31.6448 23.176L26.5579 31.4242C26.0843 32.1919 25.3166 32.1919 24.8431 31.4242L19.756 23.176C19.2825 22.4082 19.2825 21.1633 19.756 20.3956L20.3028 19.509C20.7859 18.7257 21.5726 18.7438 22.0418 19.5493L24.0837 23.0548V8.13575H14.6081C14.2865 8.13572 13.9781 7.9286 13.7507 7.55993L12.9423 6.24922C12.1785 5.01059 12.7195 2.89289 13.7998 2.89289H26.1046C26.7743 2.89289 27.3172 3.77312 27.3172 4.85896V23.0548L29.3591 19.5493C29.8282 18.7439 30.6149 18.7257 31.0981 19.509L31.6449 20.3956C32.1184 21.1633 32.1184 22.4083 31.6448 23.176ZM18.2492 24.4401C18.1366 24.2576 18.003 24.1127 17.8558 24.0139C17.7087 23.9151 17.551 23.8643 17.3918 23.8643H7.9163V8.94519L9.95824 12.4507C10.4274 13.2561 11.214 13.2743 11.6972 12.4909L12.244 11.6044C12.7175 10.8366 12.7175 9.5917 12.244 8.82395L7.15699 0.575875C6.68344 -0.191958 5.91569 -0.191958 5.44218 0.575875L0.355165 8.82403C-0.118388 9.59187 -0.118388 10.8367 0.355165 11.6045L0.901926 12.491C1.38503 13.2743 2.17172 13.2561 2.64088 12.4508L4.68282 8.94519V27.1411C4.68282 28.2269 5.22569 29.1072 5.89538 29.1072H18.2002C19.2805 29.1072 19.8215 26.9895 19.0577 25.7508L18.2492 24.4401Z" fill="#F2F2F2"/>
</svg>
